<?xml version="1.0" encoding="utf-8" standalone="no"?>
<!DOCTYPE svg PUBLIC "-//W3C//DTD SVG 1.1//EN"
  "http://www.w3.org/Graphics/SVG/1.1/DTD/svg11.dtd">
<svg xmlns:xlink="http://www.w3.org/1999/xlink" width="576pt" height="360pt" viewBox="0 0 576 360" xmlns="http://www.w3.org/2000/svg" version="1.1">
 <metadata>
  <rdf:RDF xmlns:dc="http://purl.org/dc/elements/1.1/" xmlns:cc="http://creativecommons.org/ns#" xmlns:rdf="http://www.w3.org/1999/02/22-rdf-syntax-ns#">
   <cc:Work>
    <dc:type rdf:resource="http://purl.org/dc/dcmitype/StillImage"/>
    <dc:date>2026-06-22T23:45:02.910470</dc:date>
    <dc:format>image/svg+xml</dc:format>
    <dc:creator>
     <cc:Agent>
      <dc:title>Matplotlib v3.11.0, https://matplotlib.org/</dc:title>
     </cc:Agent>
    </dc:creator>
   </cc:Work>
  </rdf:RDF>
 </metadata>
 <defs>
  <style type="text/css">*{stroke-linejoin: round; stroke-linecap: butt}</style>
 </defs>
 <g id="figure_1">
  <g id="patch_1">
   <path d="M 0 360 
L 576 360 
L 576 0 
L 0 0 
z
" style="fill: #ffffff"/>
  </g>
  <g id="axes_1">
   <g id="patch_2">
    <path d="M 50.122344 316.437656 
L 550.488841 316.437656 
L 550.488841 26.16 
L 50.122344 26.16 
z
" style="fill: #ffffff"/>
   </g>
   <g id="matplotlib.axis_1">
    <g id="xtick_1">
     <g id="line2d_1">
      <path d="M 238.913955 316.437656 
L 238.913955 26.16 
" clip-path="url(#pd6ff80c476)" style="fill: none; stroke-dasharray: 0.8,1.32; stroke-dashoffset: 0; stroke: #b0b0b0; stroke-opacity: 0.4; stroke-width: 0.8"/>
     </g>
     <g id="line2d_2">
      <defs>
       <path id="m00ba970e7e" d="M 0 0 
L 0 3.5 
" style="stroke: #000000; stroke-width: 0.8"/>
      </defs>
      <g>
       <use xlink:href="#m00ba970e7e" x="238.913955" y="316.437656" style="stroke: #000000; stroke-width: 0.8"/>
      </g>
     </g>
     <g id="text_1">
      <!-- $\mathdefault{10^{3}}$ -->
      <g transform="translate(230.113955 332.837656) scale(0.1 -0.1)">
       <defs>
        <path id="DejaVuSans-14" d="M 794 531 
L 1825 531 
L 1825 4091 
L 703 3866 
L 703 4441 
L 1819 4666 
L 2450 4666 
L 2450 531 
L 3481 531 
L 3481 0 
L 794 0 
L 794 531 
z
" transform="scale(0.015625)"/>
        <path id="DejaVuSans-13" d="M 2034 4250 
Q 1547 4250 1301 3770 
Q 1056 3291 1056 2328 
Q 1056 1369 1301 889 
Q 1547 409 2034 409 
Q 2525 409 2770 889 
Q 3016 1369 3016 2328 
Q 3016 3291 2770 3770 
Q 2525 4250 2034 4250 
z
M 2034 4750 
Q 2819 4750 3233 4129 
Q 3647 3509 3647 2328 
Q 3647 1150 3233 529 
Q 2819 -91 2034 -91 
Q 1250 -91 836 529 
Q 422 1150 422 2328 
Q 422 3509 836 4129 
Q 1250 4750 2034 4750 
z
" transform="scale(0.015625)"/>
        <path id="DejaVuSans-16" d="M 2597 2516 
Q 3050 2419 3304 2112 
Q 3559 1806 3559 1356 
Q 3559 666 3084 287 
Q 2609 -91 1734 -91 
Q 1441 -91 1130 -33 
Q 819 25 488 141 
L 488 750 
Q 750 597 1062 519 
Q 1375 441 1716 441 
Q 2309 441 2620 675 
Q 2931 909 2931 1356 
Q 2931 1769 2642 2001 
Q 2353 2234 1838 2234 
L 1294 2234 
L 1294 2753 
L 1863 2753 
Q 2328 2753 2575 2939 
Q 2822 3125 2822 3475 
Q 2822 3834 2567 4026 
Q 2313 4219 1838 4219 
Q 1578 4219 1281 4162 
Q 984 4106 628 3988 
L 628 4550 
Q 988 4650 1302 4700 
Q 1616 4750 1894 4750 
Q 2613 4750 3031 4423 
Q 3450 4097 3450 3541 
Q 3450 3153 3228 2886 
Q 3006 2619 2597 2516 
z
" transform="scale(0.015625)"/>
       </defs>
       <use xlink:href="#DejaVuSans-14" transform="translate(0 0.746875)"/>
       <use xlink:href="#DejaVuSans-13" transform="translate(63.623047 0.746875)"/>
       <use xlink:href="#DejaVuSans-16" transform="translate(128.203125 42.046875) scale(0.7)"/>
      </g>
     </g>
    </g>
    <g id="xtick_2">
     <g id="line2d_3">
      <path d="M 81.668749 316.437656 
L 81.668749 26.16 
" clip-path="url(#pd6ff80c476)" style="fill: none; stroke-dasharray: 0.8,1.32; stroke-dashoffset: 0; stroke: #b0b0b0; stroke-opacity: 0.4; stroke-width: 0.8"/>
     </g>
     <g id="line2d_4">
      <defs>
       <path id="m12d8cf9533" d="M 0 0 
L 0 2 
" style="stroke: #000000; stroke-width: 0.6"/>
      </defs>
      <g>
       <use xlink:href="#m12d8cf9533" x="81.668749" y="316.437656" style="stroke: #000000; stroke-width: 0.6"/>
      </g>
     </g>
     <g id="text_2">
      <!-- $\mathdefault{4\times10^{2}}$ -->
      <g transform="translate(63.568749 331.237656) scale(0.1 -0.1)">
       <defs>
        <path id="DejaVuSans-17" d="M 2419 4116 
L 825 1625 
L 2419 1625 
L 2419 4116 
z
M 2253 4666 
L 3047 4666 
L 3047 1625 
L 3713 1625 
L 3713 1100 
L 3047 1100 
L 3047 0 
L 2419 0 
L 2419 1100 
L 313 1100 
L 313 1709 
L 2253 4666 
z
" transform="scale(0.015625)"/>
        <path id="DejaVuSans-99" d="M 4488 3438 
L 3059 2003 
L 4488 575 
L 4116 197 
L 2681 1631 
L 1247 197 
L 878 575 
L 2303 2003 
L 878 3438 
L 1247 3816 
L 2681 2381 
L 4116 3816 
L 4488 3438 
z
" transform="scale(0.015625)"/>
        <path id="DejaVuSans-15" d="M 1228 531 
L 3431 531 
L 3431 0 
L 469 0 
L 469 531 
Q 828 903 1448 1529 
Q 2069 2156 2228 2338 
Q 2531 2678 2651 2914 
Q 2772 3150 2772 3378 
Q 2772 3750 2511 3984 
Q 2250 4219 1831 4219 
Q 1534 4219 1204 4116 
Q 875 4013 500 3803 
L 500 4441 
Q 881 4594 1212 4672 
Q 1544 4750 1819 4750 
Q 2544 4750 2975 4387 
Q 3406 4025 3406 3419 
Q 3406 3131 3298 2873 
Q 3191 2616 2906 2266 
Q 2828 2175 2409 1742 
Q 1991 1309 1228 531 
z
" transform="scale(0.015625)"/>
       </defs>
       <use xlink:href="#DejaVuSans-17" transform="translate(0 0.746875)"/>
       <use xlink:href="#DejaVuSans-99" transform="translate(83.105469 0.746875)"/>
       <use xlink:href="#DejaVuSans-14" transform="translate(186.376953 0.746875)"/>
       <use xlink:href="#DejaVuSans-13" transform="translate(250 0.746875)"/>
       <use xlink:href="#DejaVuSans-15" transform="translate(314.580078 42.046875) scale(0.7)"/>
      </g>
     </g>
    </g>
    <g id="xtick_3">
     <g id="line2d_5">
      <path d="M 119.962549 316.437656 
L 119.962549 26.16 
" clip-path="url(#pd6ff80c476)" style="fill: none; stroke-dasharray: 0.8,1.32; stroke-dashoffset: 0; stroke: #b0b0b0; stroke-opacity: 0.4; stroke-width: 0.8"/>
     </g>
     <g id="line2d_6">
      <g>
       <use xlink:href="#m12d8cf9533" x="119.962549" y="316.437656" style="stroke: #000000; stroke-width: 0.6"/>
      </g>
     </g>
    </g>
    <g id="xtick_4">
     <g id="line2d_7">
      <path d="M 151.250861 316.437656 
L 151.250861 26.16 
" clip-path="url(#pd6ff80c476)" style="fill: none; stroke-dasharray: 0.8,1.32; stroke-dashoffset: 0; stroke: #b0b0b0; stroke-opacity: 0.4; stroke-width: 0.8"/>
     </g>
     <g id="line2d_8">
      <g>
       <use xlink:href="#m12d8cf9533" x="151.250861" y="316.437656" style="stroke: #000000; stroke-width: 0.6"/>
      </g>
     </g>
     <g id="text_3">
      <!-- $\mathdefault{6\times10^{2}}$ -->
      <g transform="translate(133.150861 331.237656) scale(0.1 -0.1)">
       <defs>
        <path id="DejaVuSans-19" d="M 2113 2584 
Q 1688 2584 1439 2293 
Q 1191 2003 1191 1497 
Q 1191 994 1439 701 
Q 1688 409 2113 409 
Q 2538 409 2786 701 
Q 3034 994 3034 1497 
Q 3034 2003 2786 2293 
Q 2538 2584 2113 2584 
z
M 3366 4563 
L 3366 3988 
Q 3128 4100 2886 4159 
Q 2644 4219 2406 4219 
Q 1781 4219 1451 3797 
Q 1122 3375 1075 2522 
Q 1259 2794 1537 2939 
Q 1816 3084 2150 3084 
Q 2853 3084 3261 2657 
Q 3669 2231 3669 1497 
Q 3669 778 3244 343 
Q 2819 -91 2113 -91 
Q 1303 -91 875 529 
Q 447 1150 447 2328 
Q 447 3434 972 4092 
Q 1497 4750 2381 4750 
Q 2619 4750 2861 4703 
Q 3103 4656 3366 4563 
z
" transform="scale(0.015625)"/>
       </defs>
       <use xlink:href="#DejaVuSans-19" transform="translate(0 0.746875)"/>
       <use xlink:href="#DejaVuSans-99" transform="translate(83.105469 0.746875)"/>
       <use xlink:href="#DejaVuSans-14" transform="translate(186.376953 0.746875)"/>
       <use xlink:href="#DejaVuSans-13" transform="translate(250 0.746875)"/>
       <use xlink:href="#DejaVuSans-15" transform="translate(314.580078 42.046875) scale(0.7)"/>
      </g>
     </g>
    </g>
    <g id="xtick_5">
     <g id="line2d_9">
      <path d="M 177.704753 316.437656 
L 177.704753 26.16 
" clip-path="url(#pd6ff80c476)" style="fill: none; stroke-dasharray: 0.8,1.32; stroke-dashoffset: 0; stroke: #b0b0b0; stroke-opacity: 0.4; stroke-width: 0.8"/>
     </g>
     <g id="line2d_10">
      <g>
       <use xlink:href="#m12d8cf9533" x="177.704753" y="316.437656" style="stroke: #000000; stroke-width: 0.6"/>
      </g>
     </g>
    </g>
    <g id="xtick_6">
     <g id="line2d_11">
      <path d="M 200.620156 316.437656 
L 200.620156 26.16 
" clip-path="url(#pd6ff80c476)" style="fill: none; stroke-dasharray: 0.8,1.32; stroke-dashoffset: 0; stroke: #b0b0b0; stroke-opacity: 0.4; stroke-width: 0.8"/>
     </g>
     <g id="line2d_12">
      <g>
       <use xlink:href="#m12d8cf9533" x="200.620156" y="316.437656" style="stroke: #000000; stroke-width: 0.6"/>
      </g>
     </g>
    </g>
    <g id="xtick_7">
     <g id="line2d_13">
      <path d="M 220.832974 316.437656 
L 220.832974 26.16 
" clip-path="url(#pd6ff80c476)" style="fill: none; stroke-dasharray: 0.8,1.32; stroke-dashoffset: 0; stroke: #b0b0b0; stroke-opacity: 0.4; stroke-width: 0.8"/>
     </g>
     <g id="line2d_14">
      <g>
       <use xlink:href="#m12d8cf9533" x="220.832974" y="316.437656" style="stroke: #000000; stroke-width: 0.6"/>
      </g>
     </g>
    </g>
    <g id="xtick_8">
     <g id="line2d_15">
      <path d="M 357.865362 316.437656 
L 357.865362 26.16 
" clip-path="url(#pd6ff80c476)" style="fill: none; stroke-dasharray: 0.8,1.32; stroke-dashoffset: 0; stroke: #b0b0b0; stroke-opacity: 0.4; stroke-width: 0.8"/>
     </g>
     <g id="line2d_16">
      <g>
       <use xlink:href="#m12d8cf9533" x="357.865362" y="316.437656" style="stroke: #000000; stroke-width: 0.6"/>
      </g>
     </g>
     <g id="text_4">
      <!-- $\mathdefault{2\times10^{3}}$ -->
      <g transform="translate(339.765362 331.237656) scale(0.1 -0.1)">
       <use xlink:href="#DejaVuSans-15" transform="translate(0 0.746875)"/>
       <use xlink:href="#DejaVuSans-99" transform="translate(83.105469 0.746875)"/>
       <use xlink:href="#DejaVuSans-14" transform="translate(186.376953 0.746875)"/>
       <use xlink:href="#DejaVuSans-13" transform="translate(250 0.746875)"/>
       <use xlink:href="#DejaVuSans-16" transform="translate(314.580078 42.046875) scale(0.7)"/>
      </g>
     </g>
    </g>
    <g id="xtick_9">
     <g id="line2d_17">
      <path d="M 427.447475 316.437656 
L 427.447475 26.16 
" clip-path="url(#pd6ff80c476)" style="fill: none; stroke-dasharray: 0.8,1.32; stroke-dashoffset: 0; stroke: #b0b0b0; stroke-opacity: 0.4; stroke-width: 0.8"/>
     </g>
     <g id="line2d_18">
      <g>
       <use xlink:href="#m12d8cf9533" x="427.447475" y="316.437656" style="stroke: #000000; stroke-width: 0.6"/>
      </g>
     </g>
     <g id="text_5">
      <!-- $\mathdefault{3\times10^{3}}$ -->
      <g transform="translate(409.347475 331.237656) scale(0.1 -0.1)">
       <use xlink:href="#DejaVuSans-16" transform="translate(0 0.746875)"/>
       <use xlink:href="#DejaVuSans-99" transform="translate(83.105469 0.746875)"/>
       <use xlink:href="#DejaVuSans-14" transform="translate(186.376953 0.746875)"/>
       <use xlink:href="#DejaVuSans-13" transform="translate(250 0.746875)"/>
       <use xlink:href="#DejaVuSans-16" transform="translate(314.580078 42.046875) scale(0.7)"/>
      </g>
     </g>
    </g>
    <g id="xtick_10">
     <g id="line2d_19">
      <path d="M 476.816769 316.437656 
L 476.816769 26.16 
" clip-path="url(#pd6ff80c476)" style="fill: none; stroke-dasharray: 0.8,1.32; stroke-dashoffset: 0; stroke: #b0b0b0; stroke-opacity: 0.4; stroke-width: 0.8"/>
     </g>
     <g id="line2d_20">
      <g>
       <use xlink:href="#m12d8cf9533" x="476.816769" y="316.437656" style="stroke: #000000; stroke-width: 0.6"/>
      </g>
     </g>
     <g id="text_6">
      <!-- $\mathdefault{4\times10^{3}}$ -->
      <g transform="translate(458.716769 331.237656) scale(0.1 -0.1)">
       <use xlink:href="#DejaVuSans-17" transform="translate(0 0.746875)"/>
       <use xlink:href="#DejaVuSans-99" transform="translate(83.105469 0.746875)"/>
       <use xlink:href="#DejaVuSans-14" transform="translate(186.376953 0.746875)"/>
       <use xlink:href="#DejaVuSans-13" transform="translate(250 0.746875)"/>
       <use xlink:href="#DejaVuSans-16" transform="translate(314.580078 42.046875) scale(0.7)"/>
      </g>
     </g>
    </g>
    <g id="xtick_11">
     <g id="line2d_21">
      <path d="M 515.110569 316.437656 
L 515.110569 26.16 
" clip-path="url(#pd6ff80c476)" style="fill: none; stroke-dasharray: 0.8,1.32; stroke-dashoffset: 0; stroke: #b0b0b0; stroke-opacity: 0.4; stroke-width: 0.8"/>
     </g>
     <g id="line2d_22">
      <g>
       <use xlink:href="#m12d8cf9533" x="515.110569" y="316.437656" style="stroke: #000000; stroke-width: 0.6"/>
      </g>
     </g>
    </g>
    <g id="xtick_12">
     <g id="line2d_23">
      <path d="M 546.398882 316.437656 
L 546.398882 26.16 
" clip-path="url(#pd6ff80c476)" style="fill: none; stroke-dasharray: 0.8,1.32; stroke-dashoffset: 0; stroke: #b0b0b0; stroke-opacity: 0.4; stroke-width: 0.8"/>
     </g>
     <g id="line2d_24">
      <g>
       <use xlink:href="#m12d8cf9533" x="546.398882" y="316.437656" style="stroke: #000000; stroke-width: 0.6"/>
      </g>
     </g>
     <g id="text_7">
      <!-- $\mathdefault{6\times10^{3}}$ -->
      <g transform="translate(528.298882 331.237656) scale(0.1 -0.1)">
       <use xlink:href="#DejaVuSans-19" transform="translate(0 0.746875)"/>
       <use xlink:href="#DejaVuSans-99" transform="translate(83.105469 0.746875)"/>
       <use xlink:href="#DejaVuSans-14" transform="translate(186.376953 0.746875)"/>
       <use xlink:href="#DejaVuSans-13" transform="translate(250 0.746875)"/>
       <use xlink:href="#DejaVuSans-16" transform="translate(314.580078 42.046875) scale(0.7)"/>
      </g>
     </g>
    </g>
    <g id="text_8">
     <!-- processes -->
     <g transform="translate(275.41028 346.837656) scale(0.1 -0.1)">
      <defs>
       <path id="DejaVuSans-53" d="M 1159 525 
L 1159 -1331 
L 581 -1331 
L 581 3500 
L 1159 3500 
L 1159 2969 
Q 1341 3281 1617 3432 
Q 1894 3584 2278 3584 
Q 2916 3584 3314 3078 
Q 3713 2572 3713 1747 
Q 3713 922 3314 415 
Q 2916 -91 2278 -91 
Q 1894 -91 1617 61 
Q 1341 213 1159 525 
z
M 3116 1747 
Q 3116 2381 2855 2742 
Q 2594 3103 2138 3103 
Q 1681 3103 1420 2742 
Q 1159 2381 1159 1747 
Q 1159 1113 1420 752 
Q 1681 391 2138 391 
Q 2594 391 2855 752 
Q 3116 1113 3116 1747 
z
" transform="scale(0.015625)"/>
       <path id="DejaVuSans-55" d="M 2631 2963 
Q 2534 3019 2420 3045 
Q 2306 3072 2169 3072 
Q 1681 3072 1420 2755 
Q 1159 2438 1159 1844 
L 1159 0 
L 581 0 
L 581 3500 
L 1159 3500 
L 1159 2956 
Q 1341 3275 1631 3429 
Q 1922 3584 2338 3584 
Q 2397 3584 2469 3576 
Q 2541 3569 2628 3553 
L 2631 2963 
z
" transform="scale(0.015625)"/>
       <path id="DejaVuSans-52" d="M 1959 3097 
Q 1497 3097 1228 2736 
Q 959 2375 959 1747 
Q 959 1119 1226 758 
Q 1494 397 1959 397 
Q 2419 397 2687 759 
Q 2956 1122 2956 1747 
Q 2956 2369 2687 2733 
Q 2419 3097 1959 3097 
z
M 1959 3584 
Q 2709 3584 3137 3096 
Q 3566 2609 3566 1747 
Q 3566 888 3137 398 
Q 2709 -91 1959 -91 
Q 1206 -91 779 398 
Q 353 888 353 1747 
Q 353 2609 779 3096 
Q 1206 3584 1959 3584 
z
" transform="scale(0.015625)"/>
       <path id="DejaVuSans-46" d="M 3122 3366 
L 3122 2828 
Q 2878 2963 2633 3030 
Q 2388 3097 2138 3097 
Q 1578 3097 1268 2742 
Q 959 2388 959 1747 
Q 959 1106 1268 751 
Q 1578 397 2138 397 
Q 2388 397 2633 464 
Q 2878 531 3122 666 
L 3122 134 
Q 2881 22 2623 -34 
Q 2366 -91 2075 -91 
Q 1284 -91 818 406 
Q 353 903 353 1747 
Q 353 2603 823 3093 
Q 1294 3584 2113 3584 
Q 2378 3584 2631 3529 
Q 2884 3475 3122 3366 
z
" transform="scale(0.015625)"/>
       <path id="DejaVuSans-48" d="M 3597 1894 
L 3597 1613 
L 953 1613 
Q 991 1019 1311 708 
Q 1631 397 2203 397 
Q 2534 397 2845 478 
Q 3156 559 3463 722 
L 3463 178 
Q 3153 47 2828 -22 
Q 2503 -91 2169 -91 
Q 1331 -91 842 396 
Q 353 884 353 1716 
Q 353 2575 817 3079 
Q 1281 3584 2069 3584 
Q 2775 3584 3186 3129 
Q 3597 2675 3597 1894 
z
M 3022 2063 
Q 3016 2534 2758 2815 
Q 2500 3097 2075 3097 
Q 1594 3097 1305 2825 
Q 1016 2553 972 2059 
L 3022 2063 
z
" transform="scale(0.015625)"/>
       <path id="DejaVuSans-56" d="M 2834 3397 
L 2834 2853 
Q 2591 2978 2328 3040 
Q 2066 3103 1784 3103 
Q 1356 3103 1142 2972 
Q 928 2841 928 2578 
Q 928 2378 1081 2264 
Q 1234 2150 1697 2047 
L 1894 2003 
Q 2506 1872 2764 1633 
Q 3022 1394 3022 966 
Q 3022 478 2636 193 
Q 2250 -91 1575 -91 
Q 1294 -91 989 -36 
Q 684 19 347 128 
L 347 722 
Q 666 556 975 473 
Q 1284 391 1588 391 
Q 1994 391 2212 530 
Q 2431 669 2431 922 
Q 2431 1156 2273 1281 
Q 2116 1406 1581 1522 
L 1381 1569 
Q 847 1681 609 1914 
Q 372 2147 372 2553 
Q 372 3047 722 3315 
Q 1072 3584 1716 3584 
Q 2034 3584 2315 3537 
Q 2597 3491 2834 3397 
z
" transform="scale(0.015625)"/>
      </defs>
      <use xlink:href="#DejaVuSans-53"/>
      <use xlink:href="#DejaVuSans-55" transform="translate(63.484375 0)"/>
      <use xlink:href="#DejaVuSans-52" transform="translate(102.390625 0)"/>
      <use xlink:href="#DejaVuSans-46" transform="translate(163.578125 0)"/>
      <use xlink:href="#DejaVuSans-48" transform="translate(218.5625 0)"/>
      <use xlink:href="#DejaVuSans-56" transform="translate(280.09375 0)"/>
      <use xlink:href="#DejaVuSans-56" transform="translate(332.1875 0)"/>
      <use xlink:href="#DejaVuSans-48" transform="translate(384.28125 0)"/>
      <use xlink:href="#DejaVuSans-56" transform="translate(445.8125 0)"/>
     </g>
    </g>
   </g>
   <g id="matplotlib.axis_2">
    <g id="ytick_1">
     <g id="line2d_25">
      <path d="M 50.122344 210.650952 
L 550.488841 210.650952 
" clip-path="url(#pd6ff80c476)" style="fill: none; stroke-dasharray: 0.8,1.32; stroke-dashoffset: 0; stroke: #b0b0b0; stroke-opacity: 0.4; stroke-width: 0.8"/>
     </g>
     <g id="line2d_26">
      <defs>
       <path id="m7867dff1a4" d="M 0 0 
L -3.5 0 
" style="stroke: #000000; stroke-width: 0.8"/>
      </defs>
      <g>
       <use xlink:href="#m7867dff1a4" x="50.122344" y="210.650952" style="stroke: #000000; stroke-width: 0.8"/>
      </g>
     </g>
     <g id="text_9">
      <!-- $\mathdefault{10^{3}}$ -->
      <g transform="translate(25.522344 215.350952) scale(0.1 -0.1)">
       <use xlink:href="#DejaVuSans-14" transform="translate(0 0.746875)"/>
       <use xlink:href="#DejaVuSans-13" transform="translate(63.623047 0.746875)"/>
       <use xlink:href="#DejaVuSans-16" transform="translate(128.203125 42.046875) scale(0.7)"/>
      </g>
     </g>
    </g>
    <g id="ytick_2">
     <g id="line2d_27">
      <path d="M 50.122344 50.566418 
L 550.488841 50.566418 
" clip-path="url(#pd6ff80c476)" style="fill: none; stroke-dasharray: 0.8,1.32; stroke-dashoffset: 0; stroke: #b0b0b0; stroke-opacity: 0.4; stroke-width: 0.8"/>
     </g>
     <g id="line2d_28">
      <g>
       <use xlink:href="#m7867dff1a4" x="50.122344" y="50.566418" style="stroke: #000000; stroke-width: 0.8"/>
      </g>
     </g>
     <g id="text_10">
      <!-- $\mathdefault{10^{4}}$ -->
      <g transform="translate(25.522344 55.216418) scale(0.1 -0.1)">
       <use xlink:href="#DejaVuSans-14" transform="translate(0 0.665625)"/>
       <use xlink:href="#DejaVuSans-13" transform="translate(63.623047 0.665625)"/>
       <use xlink:href="#DejaVuSans-17" transform="translate(128.203125 41.965625) scale(0.7)"/>
      </g>
     </g>
    </g>
    <g id="ytick_3">
     <g id="line2d_29">
      <path d="M 50.122344 294.355752 
L 550.488841 294.355752 
" clip-path="url(#pd6ff80c476)" style="fill: none; stroke-dasharray: 0.8,1.32; stroke-dashoffset: 0; stroke: #b0b0b0; stroke-opacity: 0.4; stroke-width: 0.8"/>
     </g>
     <g id="line2d_30">
      <defs>
       <path id="m564f295e6c" d="M 0 0 
L -2 0 
" style="stroke: #000000; stroke-width: 0.6"/>
      </defs>
      <g>
       <use xlink:href="#m564f295e6c" x="50.122344" y="294.355752" style="stroke: #000000; stroke-width: 0.6"/>
      </g>
     </g>
    </g>
    <g id="ytick_4">
     <g id="line2d_31">
      <path d="M 50.122344 274.354992 
L 550.488841 274.354992 
" clip-path="url(#pd6ff80c476)" style="fill: none; stroke-dasharray: 0.8,1.32; stroke-dashoffset: 0; stroke: #b0b0b0; stroke-opacity: 0.4; stroke-width: 0.8"/>
     </g>
     <g id="line2d_32">
      <g>
       <use xlink:href="#m564f295e6c" x="50.122344" y="274.354992" style="stroke: #000000; stroke-width: 0.6"/>
      </g>
     </g>
    </g>
    <g id="ytick_5">
     <g id="line2d_33">
      <path d="M 50.122344 258.841198 
L 550.488841 258.841198 
" clip-path="url(#pd6ff80c476)" style="fill: none; stroke-dasharray: 0.8,1.32; stroke-dashoffset: 0; stroke: #b0b0b0; stroke-opacity: 0.4; stroke-width: 0.8"/>
     </g>
     <g id="line2d_34">
      <g>
       <use xlink:href="#m564f295e6c" x="50.122344" y="258.841198" style="stroke: #000000; stroke-width: 0.6"/>
      </g>
     </g>
    </g>
    <g id="ytick_6">
     <g id="line2d_35">
      <path d="M 50.122344 246.165505 
L 550.488841 246.165505 
" clip-path="url(#pd6ff80c476)" style="fill: none; stroke-dasharray: 0.8,1.32; stroke-dashoffset: 0; stroke: #b0b0b0; stroke-opacity: 0.4; stroke-width: 0.8"/>
     </g>
     <g id="line2d_36">
      <g>
       <use xlink:href="#m564f295e6c" x="50.122344" y="246.165505" style="stroke: #000000; stroke-width: 0.6"/>
      </g>
     </g>
    </g>
    <g id="ytick_7">
     <g id="line2d_37">
      <path d="M 50.122344 235.44836 
L 550.488841 235.44836 
" clip-path="url(#pd6ff80c476)" style="fill: none; stroke-dasharray: 0.8,1.32; stroke-dashoffset: 0; stroke: #b0b0b0; stroke-opacity: 0.4; stroke-width: 0.8"/>
     </g>
     <g id="line2d_38">
      <g>
       <use xlink:href="#m564f295e6c" x="50.122344" y="235.44836" style="stroke: #000000; stroke-width: 0.6"/>
      </g>
     </g>
    </g>
    <g id="ytick_8">
     <g id="line2d_39">
      <path d="M 50.122344 226.164746 
L 550.488841 226.164746 
" clip-path="url(#pd6ff80c476)" style="fill: none; stroke-dasharray: 0.8,1.32; stroke-dashoffset: 0; stroke: #b0b0b0; stroke-opacity: 0.4; stroke-width: 0.8"/>
     </g>
     <g id="line2d_40">
      <g>
       <use xlink:href="#m564f295e6c" x="50.122344" y="226.164746" style="stroke: #000000; stroke-width: 0.6"/>
      </g>
     </g>
    </g>
    <g id="ytick_9">
     <g id="line2d_41">
      <path d="M 50.122344 217.976018 
L 550.488841 217.976018 
" clip-path="url(#pd6ff80c476)" style="fill: none; stroke-dasharray: 0.8,1.32; stroke-dashoffset: 0; stroke: #b0b0b0; stroke-opacity: 0.4; stroke-width: 0.8"/>
     </g>
     <g id="line2d_42">
      <g>
       <use xlink:href="#m564f295e6c" x="50.122344" y="217.976018" style="stroke: #000000; stroke-width: 0.6"/>
      </g>
     </g>
    </g>
    <g id="ytick_10">
     <g id="line2d_43">
      <path d="M 50.122344 162.460705 
L 550.488841 162.460705 
" clip-path="url(#pd6ff80c476)" style="fill: none; stroke-dasharray: 0.8,1.32; stroke-dashoffset: 0; stroke: #b0b0b0; stroke-opacity: 0.4; stroke-width: 0.8"/>
     </g>
     <g id="line2d_44">
      <g>
       <use xlink:href="#m564f295e6c" x="50.122344" y="162.460705" style="stroke: #000000; stroke-width: 0.6"/>
      </g>
     </g>
    </g>
    <g id="ytick_11">
     <g id="line2d_45">
      <path d="M 50.122344 134.271218 
L 550.488841 134.271218 
" clip-path="url(#pd6ff80c476)" style="fill: none; stroke-dasharray: 0.8,1.32; stroke-dashoffset: 0; stroke: #b0b0b0; stroke-opacity: 0.4; stroke-width: 0.8"/>
     </g>
     <g id="line2d_46">
      <g>
       <use xlink:href="#m564f295e6c" x="50.122344" y="134.271218" style="stroke: #000000; stroke-width: 0.6"/>
      </g>
     </g>
    </g>
    <g id="ytick_12">
     <g id="line2d_47">
      <path d="M 50.122344 114.270459 
L 550.488841 114.270459 
" clip-path="url(#pd6ff80c476)" style="fill: none; stroke-dasharray: 0.8,1.32; stroke-dashoffset: 0; stroke: #b0b0b0; stroke-opacity: 0.4; stroke-width: 0.8"/>
     </g>
     <g id="line2d_48">
      <g>
       <use xlink:href="#m564f295e6c" x="50.122344" y="114.270459" style="stroke: #000000; stroke-width: 0.6"/>
      </g>
     </g>
    </g>
    <g id="ytick_13">
     <g id="line2d_49">
      <path d="M 50.122344 98.756665 
L 550.488841 98.756665 
" clip-path="url(#pd6ff80c476)" style="fill: none; stroke-dasharray: 0.8,1.32; stroke-dashoffset: 0; stroke: #b0b0b0; stroke-opacity: 0.4; stroke-width: 0.8"/>
     </g>
     <g id="line2d_50">
      <g>
       <use xlink:href="#m564f295e6c" x="50.122344" y="98.756665" style="stroke: #000000; stroke-width: 0.6"/>
      </g>
     </g>
    </g>
    <g id="ytick_14">
     <g id="line2d_51">
      <path d="M 50.122344 86.080972 
L 550.488841 86.080972 
" clip-path="url(#pd6ff80c476)" style="fill: none; stroke-dasharray: 0.8,1.32; stroke-dashoffset: 0; stroke: #b0b0b0; stroke-opacity: 0.4; stroke-width: 0.8"/>
     </g>
     <g id="line2d_52">
      <g>
       <use xlink:href="#m564f295e6c" x="50.122344" y="86.080972" style="stroke: #000000; stroke-width: 0.6"/>
      </g>
     </g>
    </g>
    <g id="ytick_15">
     <g id="line2d_53">
      <path d="M 50.122344 75.363826 
L 550.488841 75.363826 
" clip-path="url(#pd6ff80c476)" style="fill: none; stroke-dasharray: 0.8,1.32; stroke-dashoffset: 0; stroke: #b0b0b0; stroke-opacity: 0.4; stroke-width: 0.8"/>
     </g>
     <g id="line2d_54">
      <g>
       <use xlink:href="#m564f295e6c" x="50.122344" y="75.363826" style="stroke: #000000; stroke-width: 0.6"/>
      </g>
     </g>
    </g>
    <g id="ytick_16">
     <g id="line2d_55">
      <path d="M 50.122344 66.080212 
L 550.488841 66.080212 
" clip-path="url(#pd6ff80c476)" style="fill: none; stroke-dasharray: 0.8,1.32; stroke-dashoffset: 0; stroke: #b0b0b0; stroke-opacity: 0.4; stroke-width: 0.8"/>
     </g>
     <g id="line2d_56">
      <g>
       <use xlink:href="#m564f295e6c" x="50.122344" y="66.080212" style="stroke: #000000; stroke-width: 0.6"/>
      </g>
     </g>
    </g>
    <g id="ytick_17">
     <g id="line2d_57">
      <path d="M 50.122344 57.891485 
L 550.488841 57.891485 
" clip-path="url(#pd6ff80c476)" style="fill: none; stroke-dasharray: 0.8,1.32; stroke-dashoffset: 0; stroke: #b0b0b0; stroke-opacity: 0.4; stroke-width: 0.8"/>
     </g>
     <g id="line2d_58">
      <g>
       <use xlink:href="#m564f295e6c" x="50.122344" y="57.891485" style="stroke: #000000; stroke-width: 0.6"/>
      </g>
     </g>
    </g>
    <g id="text_11">
     <!-- per-process data syscalls per refresh -->
     <g transform="translate(19.12 263.170703) rotate(-90) scale(0.1 -0.1)">
      <defs>
       <path id="DejaVuSans-10" d="M 313 2009 
L 1997 2009 
L 1997 1497 
L 313 1497 
L 313 2009 
z
" transform="scale(0.015625)"/>
       <path id="DejaVuSans-3" transform="scale(0.015625)"/>
       <path id="DejaVuSans-47" d="M 2906 2969 
L 2906 4863 
L 3481 4863 
L 3481 0 
L 2906 0 
L 2906 525 
Q 2725 213 2448 61 
Q 2172 -91 1784 -91 
Q 1150 -91 751 415 
Q 353 922 353 1747 
Q 353 2572 751 3078 
Q 1150 3584 1784 3584 
Q 2172 3584 2448 3432 
Q 2725 3281 2906 2969 
z
M 947 1747 
Q 947 1113 1208 752 
Q 1469 391 1925 391 
Q 2381 391 2643 752 
Q 2906 1113 2906 1747 
Q 2906 2381 2643 2742 
Q 2381 3103 1925 3103 
Q 1469 3103 1208 2742 
Q 947 2381 947 1747 
z
" transform="scale(0.015625)"/>
       <path id="DejaVuSans-44" d="M 2194 1759 
Q 1497 1759 1228 1600 
Q 959 1441 959 1056 
Q 959 750 1161 570 
Q 1363 391 1709 391 
Q 2188 391 2477 730 
Q 2766 1069 2766 1631 
L 2766 1759 
L 2194 1759 
z
M 3341 1997 
L 3341 0 
L 2766 0 
L 2766 531 
Q 2569 213 2275 61 
Q 1981 -91 1556 -91 
Q 1019 -91 701 211 
Q 384 513 384 1019 
Q 384 1609 779 1909 
Q 1175 2209 1959 2209 
L 2766 2209 
L 2766 2266 
Q 2766 2663 2505 2880 
Q 2244 3097 1772 3097 
Q 1472 3097 1187 3025 
Q 903 2953 641 2809 
L 641 3341 
Q 956 3463 1253 3523 
Q 1550 3584 1831 3584 
Q 2591 3584 2966 3190 
Q 3341 2797 3341 1997 
z
" transform="scale(0.015625)"/>
       <path id="DejaVuSans-57" d="M 1172 4494 
L 1172 3500 
L 2356 3500 
L 2356 3053 
L 1172 3053 
L 1172 1153 
Q 1172 725 1289 603 
Q 1406 481 1766 481 
L 2356 481 
L 2356 0 
L 1766 0 
Q 1100 0 847 248 
Q 594 497 594 1153 
L 594 3053 
L 172 3053 
L 172 3500 
L 594 3500 
L 594 4494 
L 1172 4494 
z
" transform="scale(0.015625)"/>
       <path id="DejaVuSans-5c" d="M 2059 -325 
Q 1816 -950 1584 -1140 
Q 1353 -1331 966 -1331 
L 506 -1331 
L 506 -850 
L 844 -850 
Q 1081 -850 1212 -737 
Q 1344 -625 1503 -206 
L 1606 56 
L 191 3500 
L 800 3500 
L 1894 763 
L 2988 3500 
L 3597 3500 
L 2059 -325 
z
" transform="scale(0.015625)"/>
       <path id="DejaVuSans-4f" d="M 603 4863 
L 1178 4863 
L 1178 0 
L 603 0 
L 603 4863 
z
" transform="scale(0.015625)"/>
       <path id="DejaVuSans-49" d="M 2375 4863 
L 2375 4384 
L 1825 4384 
Q 1516 4384 1395 4259 
Q 1275 4134 1275 3809 
L 1275 3500 
L 2222 3500 
L 2222 3053 
L 1275 3053 
L 1275 0 
L 697 0 
L 697 3053 
L 147 3053 
L 147 3500 
L 697 3500 
L 697 3744 
Q 697 4328 969 4595 
Q 1241 4863 1831 4863 
L 2375 4863 
z
" transform="scale(0.015625)"/>
       <path id="DejaVuSans-4b" d="M 3513 2113 
L 3513 0 
L 2938 0 
L 2938 2094 
Q 2938 2591 2744 2837 
Q 2550 3084 2163 3084 
Q 1697 3084 1428 2787 
Q 1159 2491 1159 1978 
L 1159 0 
L 581 0 
L 581 4863 
L 1159 4863 
L 1159 2956 
Q 1366 3272 1645 3428 
Q 1925 3584 2291 3584 
Q 2894 3584 3203 3211 
Q 3513 2838 3513 2113 
z
" transform="scale(0.015625)"/>
      </defs>
      <use xlink:href="#DejaVuSans-53"/>
      <use xlink:href="#DejaVuSans-48" transform="translate(63.484375 0)"/>
      <use xlink:href="#DejaVuSans-55" transform="translate(125.015625 0)"/>
      <use xlink:href="#DejaVuSans-10" transform="translate(159.734375 0)"/>
      <use xlink:href="#DejaVuSans-53" transform="translate(195.8125 0)"/>
      <use xlink:href="#DejaVuSans-55" transform="translate(259.296875 0)"/>
      <use xlink:href="#DejaVuSans-52" transform="translate(298.203125 0)"/>
      <use xlink:href="#DejaVuSans-46" transform="translate(359.390625 0)"/>
      <use xlink:href="#DejaVuSans-48" transform="translate(414.375 0)"/>
      <use xlink:href="#DejaVuSans-56" transform="translate(475.90625 0)"/>
      <use xlink:href="#DejaVuSans-56" transform="translate(528 0)"/>
      <use xlink:href="#DejaVuSans-3" transform="translate(580.09375 0)"/>
      <use xlink:href="#DejaVuSans-47" transform="translate(611.875 0)"/>
      <use xlink:href="#DejaVuSans-44" transform="translate(675.359375 0)"/>
      <use xlink:href="#DejaVuSans-57" transform="translate(736.640625 0)"/>
      <use xlink:href="#DejaVuSans-44" transform="translate(775.84375 0)"/>
      <use xlink:href="#DejaVuSans-3" transform="translate(837.125 0)"/>
      <use xlink:href="#DejaVuSans-56" transform="translate(868.90625 0)"/>
      <use xlink:href="#DejaVuSans-5c" transform="translate(921 0)"/>
      <use xlink:href="#DejaVuSans-56" transform="translate(980.1875 0)"/>
      <use xlink:href="#DejaVuSans-46" transform="translate(1032.28125 0)"/>
      <use xlink:href="#DejaVuSans-44" transform="translate(1087.265625 0)"/>
      <use xlink:href="#DejaVuSans-4f" transform="translate(1148.546875 0)"/>
      <use xlink:href="#DejaVuSans-4f" transform="translate(1176.328125 0)"/>
      <use xlink:href="#DejaVuSans-56" transform="translate(1204.109375 0)"/>
      <use xlink:href="#DejaVuSans-3" transform="translate(1256.203125 0)"/>
      <use xlink:href="#DejaVuSans-53" transform="translate(1287.984375 0)"/>
      <use xlink:href="#DejaVuSans-48" transform="translate(1351.46875 0)"/>
      <use xlink:href="#DejaVuSans-55" transform="translate(1413 0)"/>
      <use xlink:href="#DejaVuSans-3" transform="translate(1454.109375 0)"/>
      <use xlink:href="#DejaVuSans-55" transform="translate(1485.890625 0)"/>
      <use xlink:href="#DejaVuSans-48" transform="translate(1524.796875 0)"/>
      <use xlink:href="#DejaVuSans-49" transform="translate(1586.328125 0)"/>
      <use xlink:href="#DejaVuSans-55" transform="translate(1621.53125 0)"/>
      <use xlink:href="#DejaVuSans-48" transform="translate(1660.4375 0)"/>
      <use xlink:href="#DejaVuSans-56" transform="translate(1721.96875 0)"/>
      <use xlink:href="#DejaVuSans-4b" transform="translate(1774.0625 0)"/>
     </g>
    </g>
   </g>
   <g id="line2d_59">
    <path d="M 72.866275 229.365897 
L 159.895953 194.198005 
L 217.365975 171.032869 
L 294.683602 139.741528 
L 388.005774 101.986942 
L 527.744909 53.397278 
" clip-path="url(#pd6ff80c476)" style="fill: none; stroke: #1f77b4; stroke-width: 1.5; stroke-linecap: square"/>
    <defs>
     <path id="me5bf80aee3" d="M 0 3 
C 0.795609 3 1.55874 2.683901 2.12132 2.12132 
C 2.683901 1.55874 3 0.795609 3 0 
C 3 -0.795609 2.683901 -1.55874 2.12132 -2.12132 
C 1.55874 -2.683901 0.795609 -3 0 -3 
C -0.795609 -3 -1.55874 -2.683901 -2.12132 -2.12132 
C -2.683901 -1.55874 -3 -0.795609 -3 0 
C -3 0.795609 -2.683901 1.55874 -2.12132 2.12132 
C -1.55874 2.683901 -0.795609 3 0 3 
z
" style="stroke: #1f77b4"/>
    </defs>
    <g clip-path="url(#pd6ff80c476)">
     <use xlink:href="#me5bf80aee3" x="72.866275" y="229.365897" style="fill: #1f77b4; stroke: #1f77b4"/>
     <use xlink:href="#me5bf80aee3" x="159.895953" y="194.198005" style="fill: #1f77b4; stroke: #1f77b4"/>
     <use xlink:href="#me5bf80aee3" x="217.365975" y="171.032869" style="fill: #1f77b4; stroke: #1f77b4"/>
     <use xlink:href="#me5bf80aee3" x="294.683602" y="139.741528" style="fill: #1f77b4; stroke: #1f77b4"/>
     <use xlink:href="#me5bf80aee3" x="388.005774" y="101.986942" style="fill: #1f77b4; stroke: #1f77b4"/>
     <use xlink:href="#me5bf80aee3" x="527.744909" y="53.397278" style="fill: #1f77b4; stroke: #1f77b4"/>
    </g>
   </g>
   <g id="line2d_60">
    <path d="M 72.866275 286.891776 
L 159.895953 218.130688 
L 217.365975 183.488699 
L 294.683602 150.191756 
L 388.005774 98.451431 
L 527.744909 39.354439 
" clip-path="url(#pd6ff80c476)" style="fill: none; stroke: #ff7f0e; stroke-width: 1.5; stroke-linecap: square"/>
    <defs>
     <path id="m3003e9cd17" d="M 0 3 
C 0.795609 3 1.55874 2.683901 2.12132 2.12132 
C 2.683901 1.55874 3 0.795609 3 0 
C 3 -0.795609 2.683901 -1.55874 2.12132 -2.12132 
C 1.55874 -2.683901 0.795609 -3 0 -3 
C -0.795609 -3 -1.55874 -2.683901 -2.12132 -2.12132 
C -2.683901 -1.55874 -3 -0.795609 -3 0 
C -3 0.795609 -2.683901 1.55874 -2.12132 2.12132 
C -1.55874 2.683901 -0.795609 3 0 3 
z
" style="stroke: #ff7f0e"/>
    </defs>
    <g clip-path="url(#pd6ff80c476)">
     <use xlink:href="#m3003e9cd17" x="72.866275" y="286.891776" style="fill: #ff7f0e; stroke: #ff7f0e"/>
     <use xlink:href="#m3003e9cd17" x="159.895953" y="218.130688" style="fill: #ff7f0e; stroke: #ff7f0e"/>
     <use xlink:href="#m3003e9cd17" x="217.365975" y="183.488699" style="fill: #ff7f0e; stroke: #ff7f0e"/>
     <use xlink:href="#m3003e9cd17" x="294.683602" y="150.191756" style="fill: #ff7f0e; stroke: #ff7f0e"/>
     <use xlink:href="#m3003e9cd17" x="388.005774" y="98.451431" style="fill: #ff7f0e; stroke: #ff7f0e"/>
     <use xlink:href="#m3003e9cd17" x="527.744909" y="39.354439" style="fill: #ff7f0e; stroke: #ff7f0e"/>
    </g>
   </g>
   <g id="line2d_61">
    <path d="M 72.866275 303.243217 
L 159.895953 227.569316 
L 217.365975 227.65805 
L 294.683602 227.65805 
L 388.005774 227.65805 
L 527.744909 227.569316 
" clip-path="url(#pd6ff80c476)" style="fill: none; stroke: #2ca02c; stroke-width: 1.5; stroke-linecap: square"/>
    <defs>
     <path id="mde4de0e637" d="M 0 3 
C 0.795609 3 1.55874 2.683901 2.12132 2.12132 
C 2.683901 1.55874 3 0.795609 3 0 
C 3 -0.795609 2.683901 -1.55874 2.12132 -2.12132 
C 1.55874 -2.683901 0.795609 -3 0 -3 
C -0.795609 -3 -1.55874 -2.683901 -2.12132 -2.12132 
C -2.683901 -1.55874 -3 -0.795609 -3 0 
C -3 0.795609 -2.683901 1.55874 -2.12132 2.12132 
C -1.55874 2.683901 -0.795609 3 0 3 
z
" style="stroke: #2ca02c"/>
    </defs>
    <g clip-path="url(#pd6ff80c476)">
     <use xlink:href="#mde4de0e637" x="72.866275" y="303.243217" style="fill: #2ca02c; stroke: #2ca02c"/>
     <use xlink:href="#mde4de0e637" x="159.895953" y="227.569316" style="fill: #2ca02c; stroke: #2ca02c"/>
     <use xlink:href="#mde4de0e637" x="217.365975" y="227.65805" style="fill: #2ca02c; stroke: #2ca02c"/>
     <use xlink:href="#mde4de0e637" x="294.683602" y="227.65805" style="fill: #2ca02c; stroke: #2ca02c"/>
     <use xlink:href="#mde4de0e637" x="388.005774" y="227.65805" style="fill: #2ca02c; stroke: #2ca02c"/>
     <use xlink:href="#mde4de0e637" x="527.744909" y="227.569316" style="fill: #2ca02c; stroke: #2ca02c"/>
    </g>
   </g>
   <g id="patch_3">
    <path d="M 50.122344 316.437656 
L 50.122344 26.16 
" style="fill: none; stroke: #000000; stroke-width: 0.8; stroke-linejoin: miter; stroke-linecap: square"/>
   </g>
   <g id="patch_4">
    <path d="M 550.488841 316.437656 
L 550.488841 26.16 
" style="fill: none; stroke: #000000; stroke-width: 0.8; stroke-linejoin: miter; stroke-linecap: square"/>
   </g>
   <g id="patch_5">
    <path d="M 50.122344 316.437656 
L 550.488841 316.437656 
" style="fill: none; stroke: #000000; stroke-width: 0.8; stroke-linejoin: miter; stroke-linecap: square"/>
   </g>
   <g id="patch_6">
    <path d="M 50.122344 26.16 
L 550.488841 26.16 
" style="fill: none; stroke: #000000; stroke-width: 0.8; stroke-linejoin: miter; stroke-linecap: square"/>
   </g>
   <g id="text_12">
    <!-- CPU collection cost vs process count -->
    <g transform="translate(190.67528 20.16) scale(0.12 -0.12)">
     <defs>
      <path id="DejaVuSans-26" d="M 4122 4306 
L 4122 3641 
Q 3803 3938 3442 4084 
Q 3081 4231 2675 4231 
Q 1875 4231 1450 3742 
Q 1025 3253 1025 2328 
Q 1025 1406 1450 917 
Q 1875 428 2675 428 
Q 3081 428 3442 575 
Q 3803 722 4122 1019 
L 4122 359 
Q 3791 134 3420 21 
Q 3050 -91 2638 -91 
Q 1578 -91 968 557 
Q 359 1206 359 2328 
Q 359 3453 968 4101 
Q 1578 4750 2638 4750 
Q 3056 4750 3426 4639 
Q 3797 4528 4122 4306 
z
" transform="scale(0.015625)"/>
      <path id="DejaVuSans-33" d="M 1259 4147 
L 1259 2394 
L 2053 2394 
Q 2494 2394 2734 2622 
Q 2975 2850 2975 3272 
Q 2975 3691 2734 3919 
Q 2494 4147 2053 4147 
L 1259 4147 
z
M 628 4666 
L 2053 4666 
Q 2838 4666 3239 4311 
Q 3641 3956 3641 3272 
Q 3641 2581 3239 2228 
Q 2838 1875 2053 1875 
L 1259 1875 
L 1259 0 
L 628 0 
L 628 4666 
z
" transform="scale(0.015625)"/>
      <path id="DejaVuSans-38" d="M 556 4666 
L 1191 4666 
L 1191 1831 
Q 1191 1081 1462 751 
Q 1734 422 2344 422 
Q 2950 422 3222 751 
Q 3494 1081 3494 1831 
L 3494 4666 
L 4128 4666 
L 4128 1753 
Q 4128 841 3676 375 
Q 3225 -91 2344 -91 
Q 1459 -91 1007 375 
Q 556 841 556 1753 
L 556 4666 
z
" transform="scale(0.015625)"/>
      <path id="DejaVuSans-4c" d="M 603 3500 
L 1178 3500 
L 1178 0 
L 603 0 
L 603 3500 
z
M 603 4863 
L 1178 4863 
L 1178 4134 
L 603 4134 
L 603 4863 
z
" transform="scale(0.015625)"/>
      <path id="DejaVuSans-51" d="M 3513 2113 
L 3513 0 
L 2938 0 
L 2938 2094 
Q 2938 2591 2744 2837 
Q 2550 3084 2163 3084 
Q 1697 3084 1428 2787 
Q 1159 2491 1159 1978 
L 1159 0 
L 581 0 
L 581 3500 
L 1159 3500 
L 1159 2956 
Q 1366 3272 1645 3428 
Q 1925 3584 2291 3584 
Q 2894 3584 3203 3211 
Q 3513 2838 3513 2113 
z
" transform="scale(0.015625)"/>
      <path id="DejaVuSans-59" d="M 191 3500 
L 800 3500 
L 1894 563 
L 2988 3500 
L 3597 3500 
L 2284 0 
L 1503 0 
L 191 3500 
z
" transform="scale(0.015625)"/>
      <path id="DejaVuSans-58" d="M 544 1381 
L 544 3500 
L 1119 3500 
L 1119 1403 
Q 1119 906 1312 657 
Q 1506 409 1894 409 
Q 2359 409 2629 706 
Q 2900 1003 2900 1516 
L 2900 3500 
L 3475 3500 
L 3475 0 
L 2900 0 
L 2900 538 
Q 2691 219 2414 64 
Q 2138 -91 1772 -91 
Q 1169 -91 856 284 
Q 544 659 544 1381 
z
M 1991 3584 
L 1991 3584 
z
" transform="scale(0.015625)"/>
     </defs>
     <use xlink:href="#DejaVuSans-26"/>
     <use xlink:href="#DejaVuSans-33" transform="translate(69.828125 0)"/>
     <use xlink:href="#DejaVuSans-38" transform="translate(130.125 0)"/>
     <use xlink:href="#DejaVuSans-3" transform="translate(203.3125 0)"/>
     <use xlink:href="#DejaVuSans-46" transform="translate(235.09375 0)"/>
     <use xlink:href="#DejaVuSans-52" transform="translate(290.078125 0)"/>
     <use xlink:href="#DejaVuSans-4f" transform="translate(351.265625 0)"/>
     <use xlink:href="#DejaVuSans-4f" transform="translate(379.046875 0)"/>
     <use xlink:href="#DejaVuSans-48" transform="translate(406.828125 0)"/>
     <use xlink:href="#DejaVuSans-46" transform="translate(468.359375 0)"/>
     <use xlink:href="#DejaVuSans-57" transform="translate(523.34375 0)"/>
     <use xlink:href="#DejaVuSans-4c" transform="translate(562.546875 0)"/>
     <use xlink:href="#DejaVuSans-52" transform="translate(590.328125 0)"/>
     <use xlink:href="#DejaVuSans-51" transform="translate(651.515625 0)"/>
     <use xlink:href="#DejaVuSans-3" transform="translate(714.890625 0)"/>
     <use xlink:href="#DejaVuSans-46" transform="translate(746.671875 0)"/>
     <use xlink:href="#DejaVuSans-52" transform="translate(801.65625 0)"/>
     <use xlink:href="#DejaVuSans-56" transform="translate(862.84375 0)"/>
     <use xlink:href="#DejaVuSans-57" transform="translate(914.9375 0)"/>
     <use xlink:href="#DejaVuSans-3" transform="translate(954.140625 0)"/>
     <use xlink:href="#DejaVuSans-59" transform="translate(985.921875 0)"/>
     <use xlink:href="#DejaVuSans-56" transform="translate(1045.109375 0)"/>
     <use xlink:href="#DejaVuSans-3" transform="translate(1097.203125 0)"/>
     <use xlink:href="#DejaVuSans-53" transform="translate(1128.984375 0)"/>
     <use xlink:href="#DejaVuSans-55" transform="translate(1192.46875 0)"/>
     <use xlink:href="#DejaVuSans-52" transform="translate(1231.375 0)"/>
     <use xlink:href="#DejaVuSans-46" transform="translate(1292.5625 0)"/>
     <use xlink:href="#DejaVuSans-48" transform="translate(1347.546875 0)"/>
     <use xlink:href="#DejaVuSans-56" transform="translate(1409.078125 0)"/>
     <use xlink:href="#DejaVuSans-56" transform="translate(1461.171875 0)"/>
     <use xlink:href="#DejaVuSans-3" transform="translate(1513.265625 0)"/>
     <use xlink:href="#DejaVuSans-46" transform="translate(1545.046875 0)"/>
     <use xlink:href="#DejaVuSans-52" transform="translate(1600.03125 0)"/>
     <use xlink:href="#DejaVuSans-58" transform="translate(1661.21875 0)"/>
     <use xlink:href="#DejaVuSans-51" transform="translate(1724.59375 0)"/>
     <use xlink:href="#DejaVuSans-57" transform="translate(1787.96875 0)"/>
    </g>
   </g>
   <g id="legend_1">
    <g id="patch_7">
     <path d="M 57.122344 79.162344 
L 126.031719 79.162344 
Q 128.031719 79.162344 128.031719 77.162344 
L 128.031719 33.16 
Q 128.031719 31.16 126.031719 31.16 
L 57.122344 31.16 
Q 55.122344 31.16 55.122344 33.16 
L 55.122344 77.162344 
Q 55.122344 79.162344 57.122344 79.162344 
z
" style="fill: #ffffff; opacity: 0.8; stroke: #cccccc; stroke-linejoin: miter"/>
    </g>
    <g id="line2d_62">
     <path d="M 59.122344 39.258437 
L 69.122344 39.258437 
L 79.122344 39.258437 
" style="fill: none; stroke: #1f77b4; stroke-width: 1.5; stroke-linecap: square"/>
     <g>
      <use xlink:href="#me5bf80aee3" x="69.122344" y="39.258437" style="fill: #1f77b4; stroke: #1f77b4"/>
     </g>
    </g>
    <g id="text_13">
     <!-- top -->
     <g transform="translate(87.122344 42.758437) scale(0.1 -0.1)">
      <use xlink:href="#DejaVuSans-57"/>
      <use xlink:href="#DejaVuSans-52" transform="translate(39.203125 0)"/>
      <use xlink:href="#DejaVuSans-53" transform="translate(100.390625 0)"/>
     </g>
    </g>
    <g id="line2d_63">
     <path d="M 59.122344 54.259219 
L 69.122344 54.259219 
L 79.122344 54.259219 
" style="fill: none; stroke: #ff7f0e; stroke-width: 1.5; stroke-linecap: square"/>
     <g>
      <use xlink:href="#m3003e9cd17" x="69.122344" y="54.259219" style="fill: #ff7f0e; stroke: #ff7f0e"/>
     </g>
    </g>
    <g id="text_14">
     <!-- htop -->
     <g transform="translate(87.122344 57.759219) scale(0.1 -0.1)">
      <use xlink:href="#DejaVuSans-4b"/>
      <use xlink:href="#DejaVuSans-57" transform="translate(63.375 0)"/>
      <use xlink:href="#DejaVuSans-52" transform="translate(102.578125 0)"/>
      <use xlink:href="#DejaVuSans-53" transform="translate(163.765625 0)"/>
     </g>
    </g>
    <g id="line2d_64">
     <path d="M 59.122344 69.26 
L 69.122344 69.26 
L 79.122344 69.26 
" style="fill: none; stroke: #2ca02c; stroke-width: 1.5; stroke-linecap: square"/>
     <g>
      <use xlink:href="#mde4de0e637" x="69.122344" y="69.26" style="fill: #2ca02c; stroke: #2ca02c"/>
     </g>
    </g>
    <g id="text_15">
     <!-- truetop -->
     <g transform="translate(87.122344 72.76) scale(0.1 -0.1)">
      <use xlink:href="#DejaVuSans-57"/>
      <use xlink:href="#DejaVuSans-55" transform="translate(39.203125 0)"/>
      <use xlink:href="#DejaVuSans-58" transform="translate(80.3125 0)"/>
      <use xlink:href="#DejaVuSans-48" transform="translate(143.6875 0)"/>
      <use xlink:href="#DejaVuSans-57" transform="translate(205.21875 0)"/>
      <use xlink:href="#DejaVuSans-52" transform="translate(244.421875 0)"/>
      <use xlink:href="#DejaVuSans-53" transform="translate(305.609375 0)"/>
     </g>
    </g>
   </g>
  </g>
 </g>
 <defs>
  <clipPath id="pd6ff80c476">
   <rect x="50.122344" y="26.16" width="500.366497" height="290.277656"/>
  </clipPath>
 </defs>
</svg>
